<svg id="Layer_1" data-name="Layer 1" xmlns="http://www.w3.org/2000/svg" viewBox="0 0 384.75 384"><defs><style>.cls-1{fill:#fff;}</style></defs><title>vite</title><path class="cls-1" d="M43.15,180c0-14.13.06-28.25,0-42.38,0-2.56.72-3.95,3.12-5.14Q101,105.19,155.78,77.8a13.42,13.42,0,0,1,5.68-1.3c20.88-.09,41.75,0,62.63-.11A7.52,7.52,0,0,1,230,78.83q54.42,54.55,108.94,109c3.78,3.78,5.4,11.9,3,16.73q-10.61,21.48-21.48,42.84a7.46,7.46,0,0,1-3.14,3q-55.2,27.69-110.51,55.19a6.08,6.08,0,0,1-4.7,0Q124,266.65,46,227.64c-2.34-1.17-2.86-2.59-2.84-4.95C43.2,208.44,43.15,194.2,43.15,180Zm23.2-34.44c.85.93,1.33,1.5,1.86,2q67.05,67.07,134.07,134.18c1.78,1.78,3.06,1.7,5.12.66,28.77-14.46,57.58-28.8,86.33-43.29a9.81,9.81,0,0,0,4.06-4c6.88-13.44,13.52-27,20.39-40.45,1.17-2.28,1-3.54-.84-5.37-13.08-12.89-26.15-25.8-38.93-39-3.4-3.52-6.75-5.09-11.68-4.86-9,.41-18.11.12-27.69.12l11.43-23c-7-7-13.78-14-20.82-20.67a8.76,8.76,0,0,0-5.48-2.23q-31.29-.24-62.6,0a15,15,0,0,0-6.38,1.58q-32.88,16.26-65.66,32.73C82,137.66,74.39,141.47,66.35,145.51Z"/><path class="cls-1" d="M182.11,191.28l44.83-22.41c15.43,15.43,30.6,30.58,46.08,46l-44.9,22.49Z"/><path class="cls-1" d="M135.47,145.72c1.18-.7,2-1.24,2.86-1.67,13.39-6.71,26.8-13.37,40.15-20.16,2.08-1,3.42-1,5.15.76,6.69,6.9,13.57,13.62,20.67,20.7-1.21.71-2.11,1.3-3.06,1.78-13.27,6.67-26.57,13.27-39.8,20-2.23,1.13-3.6,1.08-5.44-.84C149.35,159.4,142.47,152.71,135.47,145.72Z"/></svg>