<svg xmlns="http://www.w3.org/2000/svg" xmlns:xlink="http://www.w3.org/1999/xlink" viewBox="0 0 750 500"><defs><style>.cls-1,.cls-3,.cls-4{fill:none;}.cls-2{clip-path:url(#clip-path);}.cls-3,.cls-4{stroke:#000;stroke-miterlimit:10;}.cls-3{stroke-width:2px;}.cls-4{stroke-width:2.08px;}</style><clipPath id="clip-path"><rect class="cls-1" width="750" height="500"/></clipPath></defs><title>whitelines</title><g id="OBJECTS"><g class="cls-2"><path class="cls-3" d="M-42.45,162.84c12.53,18.41,37.75,27,58.93,20.16S53,154.33,52.35,132.07c-.33-10.68-3.92-21-4.77-31.66C44.57,62.6,81.07,28.25,119,28.94s71.54,31.89,80.17,68.83-5.31,77-31.12,104.77c-15.14,16.3-33.92,28.82-49.77,44.43s-29.18,35.94-28.76,58.18c.57,30.3,27.12,55,56.11,63.84,23.95,7.27,51.41,5.7,72.17-8.29s32.8-41.56,25-65.33c-6.13-18.57-23.21-34.62-20.44-54,2.52-17.62,21-28.67,38.48-31.8s35.77-1,53.08-5.13,34.69-17.74,34.14-35.53c-.75-24.33-31-34.82-45.9-54.07-18.84-24.34-9-62.79,15.19-81.78s58-21.44,88.12-15C455,28.74,500.79,64.86,513.38,114s-15.86,107.94-65,120.45c-26.44,6.73-54.6.35-81.52,4.81s-55.16,28.29-47.57,54.5c4.44,15.34,19.26,24.85,29.68,36.95,18.2,21.12,21.2,57.21-.16,75.11-22,18.47-54.74,9.49-83.16,5.14-32.22-4.92-66.48-2.09-95.08,13.52s-50.49,45.36-51.46,77.94c-1.45,49.1,44.87,89.61,93.4,97.25s97.42-9.84,141.72-31.06c24.31-11.65,48.44-24.81,67.22-44.15s31.73-45.82,29.34-72.67c-3.81-42.88-44.65-77.45-42.53-120.45,1.48-29.92,27.17-56.75,57-59.53s53.1,26.76,60.07,55.89c4.18,17.44,7.75,28.35,13.51,45.34,9.55,28.22,44.6,43.26,73,34.35s48.06-37.81,50.2-67.52S650.7,280.63,630,259.26c-17.44-18-41.76-34.87-41.46-59.91.49-40.43,65.27-60.31,60-100.41-2.41-18.33-19.58-31.1-36.7-38.08s-36-10.63-50.93-21.49c-33-23.89-33.86-76.83-9.12-109.18s67.42-46.34,108.12-47.69c40.92-1.36,83.34,9,114.92,35.06S825.08-13.23,816,26.68c-7,30.54-28.42,55.55-50.73,77.52s-46.61,42.83-62,70.07-20.19,63.31-2.3,89c28.85,41.46,102,39.83,119.57,87.17,9.42,25.39-3.29,54.56-23.09,73s-45.53,28.88-70,40.44-49.27,25.55-64,48.29-15.66,56.46,4.64,74.37Q665.53,580.8,663,575"/><path class="cls-3" d="M-28,158.7c9.78,14.18,32.88,12.83,45.54,1.15s17-29.79,18.59-46.93S37.24,78.12,43,61.87C51.8,36.68,75.24,18,101.19,11.72s53.88-1.16,77.72,10.88c13.56,6.84,26.25,16.1,34.82,28.64,10.09,14.74,13.83,33,14.43,50.88,1.73,51.66-22.38,103.56-63,135.54-10.83,8.53-22.75,15.72-32.75,25.22s-18.15,22-18.6,35.77c-.43,13.38,6.66,26.31,16.9,34.94s23.31,13.33,36.51,15.58c9,1.53,18.39,2,27.13-.66s16.78-8.69,20.08-17.19c5.22-13.43-2.17-28-7.07-41.58-6.65-18.38-8.73-38.94-2.67-57.53s21.1-34.76,40.13-39.24c13-3.05,26.58-.68,39.8-2.29s27.58-9.42,29.39-22.61-9.2-23.92-17.1-34.53a88.13,88.13,0,0,1-14.32-74c6.64-25.13,25.29-46.61,49-57.29C371.33-15.67,469.33-13,512,55.67S548,205,496.67,235s-137.36,6.6-156,36,26,46.13,34.33,79.4,3.67,68.6-31,88.6-112.67-20-154,4.67-37.33,94,49.33,103.33S404,519.67,418,467.67,376.58,353.49,398,303s91.33-54,122-21.33,24.67,100,72.67,107.33,66.66-70.68,12-118.34-47.34-80.33-16-111S635.33,91,604.67,79s-78-31.33-81.34-101.33S584-135,692.67-130.33s158,86,149.33,152.66S727.09,144.05,714,203.67,790,272.33,829.33,325s3.34,109.33-50,138.67-132,53.33-92,127.33"/><path class="cls-3" d="M-30,206.48a71,71,0,0,0,63.84,2.44,71,71,0,0,0,39.09-50.54c2.56-13.82.89-28,.65-42.06s1.16-28.83,9-40.51c12.09-18.13,38.23-24,58.24-15.36s33.34,29.36,36.14,51-3.91,43.7-15.37,62.23-27.43,33.86-44.27,47.68c-14.89,12.21-30.87,23.7-41.8,39.55A83,83,0,0,0,108.29,383c23.62,11.17,47.9,12.38,73.79,8.82s51.07-16.06,67-36.79,21.26-50,10.74-73.94c-4.88-11.09-13.1-22.21-10.44-34,2-9,10.17-15.55,18.88-18.58s18.11-3.23,27.3-4c20.42-1.7,41.44-6.79,57-20.15s23.84-36.66,15.05-55.16c-10.73-22.56-40.95-29.78-53.42-51.43-12.75-22.16-.16-49.29,22-58.59,27.34-11.48,59.43-11.44,86.6.55a110.75,110.75,0,0,1,62,74.51c6.15,25.91,2.22,54.41-12.22,76.78s-39.6,37.93-66.2,39.15c-22.26,1-45.11-7.43-66.45-1a49.5,49.5,0,0,0-32.52,63.61c4.34,12.54,13.46,22.74,22,32.92S346.21,347,348.53,360s-3.42,28.51-15.91,33c-22.05,7.88-41.84,8.76-65.24,8s-47-3.2-70.08,1a124.11,124.11,0,0,0-100,144.33"/><path class="cls-3" d="M430.68,531.78c31.17-21.13,46.62-63,36.66-99.3-4.64-16.92-14-32.06-22.2-47.59s-15.33-32.33-14.9-49.87,10.33-35.89,27-41.28c16.52-5.33,35,3.41,46.12,16.7s16.6,30.33,21.79,46.88,10.64,33.6,21.79,46.89c18.15,21.62,50.27,29.42,77.06,20.54s47.39-33,54.14-60.43.27-57.32-15.3-80.85c-9.54-14.41-22.18-26.5-32.39-40.43s-18.15-30.83-16-48c2.5-20.27,18.07-36,31.84-51.11S673.6,110.21,670.66,90c-2.91-20-21.29-34.28-39.95-42.19S591.59,35.9,574.52,25,544.31-7.25,551.44-26.22"/><path class="cls-3" d="M787,40.52C769.84,73.79,739.66,98,714,125.21s-48.39,62.08-44.31,99.28c3,27.67,20.72,51.88,41.91,69.93,9.44,8,19.89,14.33,29.82,21.64,9.13,6.71,19.16,9.61,29.94,13.4,24.41,8.6,52.45,27.2,36,56.85-7.47,13.43-21.28,22-35,29-22.37,11.48-45.91,20.52-68.32,31.9s-44,25.44-59.84,45-25.33,45.22-21.25,70"/><path class="cls-3" d="M-21.76,228.3a87.84,87.84,0,0,0,69-10.55,87.8,87.8,0,0,0,38.85-58c2.83-15.94,1.18-32.51,4.93-48.26s15.45-31.6,31.62-32.29c11.09-.47,21.59,6.64,27.34,16.13s7.35,21,6.94,32.1a99.13,99.13,0,0,1-21.71,58c-16.09,20-39.31,32.87-57.12,51.31A129.4,129.4,0,0,0,43.18,340.35c2.85,24,13.5,48.45,35.34,60.78,9.39,5.3,18.37,5.65,28.67,7.28,4.27.67,9.86,1.62,12.14,5.86,5.17,9.61-6.23,21.29-11.12,28.41-7.39,10.76-12.63,23.83-16.78,36.14A183.13,183.13,0,0,0,83,559"/><path class="cls-3" d="M113,108.61c-2.6,6.86-2.3,14.41-2.68,21.73a113.44,113.44,0,0,1-19.7,58.06c-2.48,3.6-5.19,8.48-2.5,11.92,3,3.8,9,1.54,12.91-1.3a89,89,0,0,0,32.32-45.35c4.35-14.19,5.4-30.37,1.82-44.86C131.54,94.11,118.47,94.24,113,108.61Z"/><path class="cls-3" d="M-27.89,243.5c14.19,7.47,31.7,6.17,46.62.3S46.53,228,59.21,218.13c3.93-3,9.14-6.23,13.51-3.85,3.62,2,4.48,7.07,3,10.94s-4.57,6.81-7.52,9.7c-17.94,17.54-33,38.42-41.47,62.05S17,347.16,25.5,370.76s27.58,43.75,51.55,51.15c6.12,1.89,13.21,3.49,16.37,9.06,4.33,7.63-1.58,16.73-6.44,24-21.87,32.9-25.34,77.23-8.85,113.13"/><path class="cls-3" d="M-37.8,270.47c3.79,6.23,12.33,8.14,19.42,6.4,12.76-3.13,21.11-14.36,32.44-20.18,3.42-1.77,7.74-2.67,11-.67,3,1.82,4.3,5.62,4.1,9.11s-1.63,6.78-3,10c-21.77,49.27-36.77,122.49,21,154.25,5.06,2.78,10.66,5,14.44,9.37,5.73,6.61,5.8,16.57,3.18,24.92s-7.51,15.78-11,23.83a73.9,73.9,0,0,0,2.32,62.11"/><path class="cls-3" d="M-14.21,294.84a52.46,52.46,0,0,1,11.58-11.7c1.35-1,2.87-1.94,4.54-1.86,2.45.11,4.3,2.53,4.63,5s-.49,4.86-1.28,7.19l-15.72,45.84"/><path class="cls-3" d="M-13.9,369A86.87,86.87,0,0,0,21,434.49c8.57,6.28,19.12,12,21.72,22.33,2,8-1.53,16.21-4.62,23.86-9.26,22.95-14.93,49-6.67,72.29"/><path class="cls-3" d="M-19.65,426.33c.58,9.83,9.82,16.64,18.44,21.41S17.16,457.62,20.23,467c2.7,8.21-.67,17-3.16,25.3a125.26,125.26,0,0,0-1.38,66.81"/><path class="cls-3" d="M-17,461.79c7.74,2.85,16.25,6.39,19.64,13.91,2.6,5.75,1.51,12.4.38,18.6q-4.95,26.94-9.88,53.88"/><path class="cls-3" d="M-37.47,143.41c16.62,9.73,40.76,2.67,49.54-14.47,6.77-13.23,4.64-29,5.32-43.85,1.7-37.1,23.76-73,56.85-89.84,19.86-10.1,42.55-13.35,64.82-13.63,20.23-.26,41.48,2.17,58.11,13.69,13.14,9.11,22.15,23.1,28.72,37.68a170,170,0,0,1,6.05,122.74c-1.47,4.36-3.14,8.89-2.51,13.45s4.52,9.06,9.09,8.52,7.15-5.23,11.07-7.46c10.88-6.16,26.54,8.22,36.09.14,4-3.43,4.62-9.65,3-14.69s-5.08-9.26-8.1-13.62C260.27,112.82,257,73.19,270,40s41.15-59.46,74.24-72.57"/><path class="cls-3" d="M61-10.9A77.07,77.07,0,0,0,12.1,36.93c-3.83,11.22-5,23.16-7.45,34.76S-2,95-10.44,103.34s-22.23,12.1-32.56,6.27"/><path class="cls-3" d="M-5.5,63a109.64,109.64,0,0,1,43.3-85"/><path class="cls-3" d="M207.8-27.58c12,3.72,21.08,13.93,26.27,25.33s7,24,8.52,36.47c.56,4.61,2.51,10.55,7.16,10.39,4.35-.15,6.1-5.57,6.88-9.86A148.84,148.84,0,0,1,307.39-52.1"/><path class="cls-3" d="M255.2,122.19c-1-1.5-3.38-2.17-4.54-.82a4.36,4.36,0,0,0-.78,2.46c-.52,4.94-.43,10.45-1.6,15.27-1.12,4.61-4,7.24-5.32,11.74-.8,2.68-.37,5.92,1.77,7.71,3.23,2.69,13-2.77,18-1.49,2.22.57,4.38,1.52,6.68,1.52s4.82-1.35,5.17-3.61c.44-3-2.78-5-5.31-6.58a29.1,29.1,0,0,1-10.84-12.58C256.66,131.81,257.44,125.63,255.2,122.19Z"/><path class="cls-3" d="M138.77,290.39c-2.27,6.75-2.56,14.33.21,20.88,4.13,9.78,14.27,15.74,24.46,18.7,4.75,1.39,9.76,2.27,14.65,1.47s9.64-3.5,12-7.87c3.88-7.27.15-16-2.36-23.89-3.76-11.8,2-38.16-13.83-41.46C158.62,255,142.84,278.26,138.77,290.39Z"/><path class="cls-3" d="M155,295.81c-.95,7.87,3.23,16.77,10.85,18.94,2.7.77,6.07.43,7.64-1.9,1.18-1.77,1-4.08.74-6.2q-1.59-13.48-3.16-27a6.91,6.91,0,0,0-1-3.41C165.08,269.59,155.44,292.27,155,295.81Z"/><path class="cls-3" d="M272.26,278.56c5.93,15.75,9.51,32.8,7,49.45s-11.69,32.85-26.49,40.88c-4.48,2.43-10.25,5.45-9.77,10.53s6.78,7,11.84,7.71c15.87,2.2,32.5,4.32,47.56-1.17s27.67-21.26,23.86-36.83c-2.86-11.68-13.49-19.46-21.14-28.74-15.43-18.73-18.8-46.58-8.26-68.45,1.61-3.35,3.58-6.87,3-10.55-2.07-13.94-21.54-6-27.65-.27C261.62,251.16,267.94,267.07,272.26,278.56Z"/><path class="cls-3" d="M291.48,337.88a19.75,19.75,0,0,0-1.29,5.83A35.18,35.18,0,0,1,279.66,364c-2.28,2.17-5.12,4.64-4.66,7.75a5.72,5.72,0,0,0,4.29,4.32,13.35,13.35,0,0,0,6.37-.2c6.25-1.39,12.3-4.27,16.69-8.93s7-11.21,6.11-17.55C307.72,344.05,296.23,328.11,291.48,337.88Z"/><path class="cls-3" d="M446.79,87.36a88.53,88.53,0,0,0-46.3-36.53c-18.88-6.48-50.9-8.26-61.83,12.69-18,34.44,39.74,53.29,50.39,79.22,7.7,18.75-1.78,40.45-15.33,55.53-3.76,4.19-8.18,9.35-6.48,14.72,2,6.15,10.19,7.19,16.6,6.38,28.72-3.66,55-22.69,67.49-48.83S462,112,446.79,87.36Z"/><path class="cls-3" d="M359,84.49c3.69,19.45,42.73,40.3,48.69,55.7C414.13,156.92,406,175.85,395,190c-1.71,2.19-3.6,4.67-3.24,7.42.44,3.33,4.2,5.4,7.54,5.1s6.26-2.32,8.87-4.43c27.41-22.12,38.13-62.69,25.23-95.46C428.06,89.08,419,76.83,406.69,69c-10.68-6.8-27.82-10-38.82-2.08C360.1,72.52,357.83,78.43,359,84.49Z"/><path class="cls-3" d="M378.71,89.42A24.88,24.88,0,0,0,384,99.14c4.11,5.11,9,9.5,13.91,13.87L416,129.15c1.19,1.07,2.79,2.2,4.24,1.55s1.67-2.63,1.59-4.23a66,66,0,0,0-16.32-39.95c-3.86-4.42-10-11.84-16.46-11.69C381.67,75,377.16,82.77,378.71,89.42Z"/><path class="cls-3" d="M346,279.76c-.54,4.43,1.23,8.81,3.34,12.73a68.83,68.83,0,0,0,20.73,23.4c2.22,1.57,4.86,3.07,7.51,2.49,3.27-.71,5.11-4.31,5.43-7.64s-.41-6.7-.06-10c.81-7.76,7.1-13.62,11.21-20.26,1.81-2.92,3.26-6.42,2.34-9.73-1.4-5.06-7.46-7.15-12.7-7.5C373.94,262.54,347.53,267.51,346,279.76Z"/><path class="cls-3" d="M360.61,284.4c-.75,5.68,2.18,11.29,6.06,15.52,1.86,2,5.06,3.88,7.12,2.06a5.71,5.71,0,0,0,1.35-2.26l4.4-10.86c1.33-3.31,2.69-7,1.58-10.35C377.83,268.49,361.66,276.5,360.61,284.4Z"/><path class="cls-4" d="M193.28,521.48c-3.65-9-7.35-18.17-7.89-27.77s2.58-19.86,10.53-26c7.77-6.05,18.68-7.24,28.83-6.85,31,1.18,61.38,14.45,92,9.89C342,467,364.48,450.32,374,428.41c3.49-8,7.08-18.1,16.28-19.49,5.76-.87,11.53,2.53,14.58,7.13s3.84,10.18,4,15.57c1.31,36.28-23.94,72.11-60.34,85.66"/><path class="cls-4" d="M215.33,511.84c-9-5.24-8.24-19.76-.69-26.94S233.56,476.38,244,477c31.26,1.94,62.53,18.14,92.61,9.43a59.19,59.19,0,0,0,36.92-31.95c2.34-5.15,5.31-11.65,11-11.57,4.43.07,7.64,4.81,7.63,9.24s-2.37,8.48-4.83,12.17a139.15,139.15,0,0,1-55,47.88"/><path class="cls-4" d="M226.5,510.47c-2.53-3.56-1.15-8.83,2-11.84s7.61-4.23,11.91-5A78.83,78.83,0,0,1,309.9,516.7"/><path class="cls-4" d="M462.38,523.32c27.65-27,36.75-71.2,22-106.87-8.34-20.12-23.62-38.18-24.78-59.94-.51-9.39,2.51-19.88,10.68-24.54,8-4.57,18.64-1.89,25.68,4.08s11.25,14.58,14.9,23.06c8.26,19.17,13.9,44.39,28.7,59.65,14.15,14.59,34.41,23.54,54.63,24.81,39.43,2.46,73.31-24.52,91.31-57.92,12.9-23.93,8.88-45,2-69.8-.57-2.08-1.15-4.29-.55-6.35,1.11-3.82,5.91-5.5,9.77-4.57s7,3.71,9.87,6.4c12.92,11.91,24.61,27.27,41.54,33.36,7.36,2.65,15.26,3.54,22.65,6.12s14.64,7.4,17.14,14.82c9.68,28.75-53.36,43.7-71,50.68-28.86,11.4-59.5,29-79.4,53.15a185.07,185.07,0,0,0-39.44,84.67"/><path class="cls-4" d="M479.67,523.51a109,109,0,0,0,7.12-128.09c-3.9-6-8.52-12-9.41-19.14s4-15.57,11.17-15.24c4.27.19,7.81,3.34,10.56,6.62,16.3,19.45,17.76,47.86,32.82,68.29,15.36,20.85,44.86,30,69.31,21.46,4-1.39,7.9-3.21,12.1-3.57s8.93,1.11,10.95,4.81c3.1,5.69-1.55,12.35-5.74,17.3a255.15,255.15,0,0,0-51.3,97.7"/><path class="cls-4" d="M492.75,533.52c20.12-12.09,30.87-37.95,25.23-60.75-1.35-5.47-2.69-12.94,2.44-15.29,3.07-1.41,6.78.31,9,2.87s3.35,5.83,5,8.77c7,12.48,24,18.17,37.12,12.38,3.25-1.43,6.25-3.47,9.64-4.55s7.46-1,10.08,1.4,3,6.91,1.68,10.4-3.91,6.31-6.36,9.13a175.67,175.67,0,0,0-37,70.16"/><path class="cls-4" d="M524.3,520.5q1.25-10.44,2.5-20.89c.38-3.15,1.23-6.92,4.24-7.94,2.22-.75,4.62.43,6.43,1.91s3.39,3.33,5.53,4.27c5.59,2.45,12.4-2.19,18,.19,3.84,1.64,5.74,6.16,5.7,10.34-.1,8.51-6.38,15.53-12.43,21.52s-12.6,12.57-13.52,21"/><path class="cls-4" d="M708.18,344.88c-.91,3.25.11,6.69.78,10a48,48,0,0,1-16.34,45.59c-2.69,2.2-6,5-5.21,8.36.56,2.46,3.27,4,5.8,4s4.92-1.07,7.22-2.14l53.38-24.89c4.26-2,9.22-5.09,8.87-9.77-.27-3.6-3.63-6.05-6.67-8l-28.49-18.2C723.1,347,711.12,334.45,708.18,344.88Z"/><path class="cls-4" d="M716.81,387.76c-1.38,2.22-3,5.27-1.15,7.12,1.47,1.47,4,.78,5.85-.06q5.41-2.35,10.6-5.21c4.58-2.51,9.39-5.81,10.6-10.89,1.88-8-9.91-21.32-18.68-18.77-5.38,1.56-3.93,5.4-3.62,10C720.86,376.64,720.55,381.76,716.81,387.76Z"/><path class="cls-4" d="M584.87-18.29c-5.55,11.34-.72,25.6,8.23,34.5s21.17,13.59,33.11,17.68,24.29,8,34.21,15.79c12.24,9.63,19.67,24.78,21,40.31s-3.28,31.28-11.7,44.39c-7.11,11.05-16.75,20.21-24.94,30.5s-15.13,22.41-15.28,35.55c-.19,16.66,10.35,31.29,20.42,44.56,2,2.62,4.54,5.52,7.82,5.26,3-.24,5.19-3.27,5.55-6.27s-.64-6-1.57-8.86c-6-18.49-9.83-38.65-4.25-57.27,7.95-26.48,32.53-43.69,51.42-63.87A178.63,178.63,0,0,0,756.3-15.55"/><path class="cls-4" d="M614.32-12.88c-1,9.91,5.09,19.43,13,25.43s17.59,9.19,27,12.48,19,6.92,26.36,13.58c8.46,7.63,13.3,18.71,14.93,30,1.26,8.8.54,17.25-1.11,25.87-.46,2.44-3.08,4.27-1.44,6.86,5.47,8.67,18.95-10,21.23-13.95,21.15-36.46,25.37-82.28,11.25-122"/><path class="cls-4" d="M642.72-13c2.63,8.1,9.71,14,17.14,18.15s15.57,7.1,22.63,11.86a51.77,51.77,0,0,1,19.12,23.83c1.68,4.25,4.49,9.78,8.93,8.7,3-.71,4.31-4.14,5-7.13A74.15,74.15,0,0,0,700-20.78"/><path class="cls-4" d="M666.4-8.47a72.39,72.39,0,0,1,29.79,26,15.19,15.19,0,0,0,3.18,4,4.54,4.54,0,0,0,4.77.75c2.68-1.43,2.15-5.39,1.08-8.24a89.44,89.44,0,0,0-19.81-31.13"/><path class="cls-4" d="M449.33-17.08s43.93,14.75,75,71.41,23.6,113.49,27,123.42,13.38-12.08,21.38-27.42,32.66-26.81,28-46.74S518.67,66.33,510-8.33"/><path class="cls-4" d="M550.79,85.64c-.77,2-.38,4.24,0,6.35q4.68,24.81,9.35,49.61c2.7.25,4.9-2.29,5.69-4.89s.66-5.39,1.45-8c2.09-6.82,10-10.89,11.26-17.9.93-5.23-2.22-10.3-5.73-14.29C569.91,93.22,554.28,76.62,550.79,85.64Z"/><path class="cls-4" d="M534.23,219.16c1-4.74,1.46-10.63,5.88-12.59,3.29-1.47,7.3.33,9.49,3.18s3,6.51,3.72,10c3.7,18.18,7.11,37.51,19.28,51.52,8.49,9.76,20.39,15.87,29.91,24.65A70.77,70.77,0,0,1,624.68,340c1.36,12.71-2,27.51-13.25,33.62-9.52,5.18-21.78,2.23-30.49-4.23C569.52,361,562.88,347.49,558.46,334s-7-27.65-12.58-40.74S531.19,267.72,518,262.41c-3.85-1.54-8-2.47-11.53-4.64-12-7.35-3.5-15.86,5.87-17.44C523.51,238.45,531.82,230.64,534.23,219.16Z"/><path class="cls-4" d="M596.82,357.8c-9.14-3.05-18.57-13.87-22.2-19.68-14.93-23.9-14.46-55.93-38.51-74.07-5.24-4-11.91-9.42-9.55-15.56,2.08-5.39,10.13-5.85,14.78-2.42s6.91,9.12,9.56,14.26c12.17,23.64,35.65,39.05,52.65,59.49,6.86,8.25,17.2,30.35,2.68,37.69C603.32,359,600.09,358.89,596.82,357.8Z"/><path class="cls-4" d="M763.89,151.55c-15.13,12.8-30.49,27.72-34,47.21a46.28,46.28,0,0,0,41,54.39"/><path class="cls-4" d="M754.09,181.1a31.58,31.58,0,0,0,15.2,52.74"/><path class="cls-4" d="M723.81,509.28c16-14.14,36.13-22.45,55.87-30.52"/></g></g></svg>